<?xml version="1.0" encoding="UTF-8" standalone="no"?>
<!-- Created with Inkscape (http://www.inkscape.org/) -->

<svg
   xmlns:dc="http://purl.org/dc/elements/1.1/"
   xmlns:cc="http://creativecommons.org/ns#"
   xmlns:rdf="http://www.w3.org/1999/02/22-rdf-syntax-ns#"
   xmlns:svg="http://www.w3.org/2000/svg"
   xmlns="http://www.w3.org/2000/svg"
   xmlns:sodipodi="http://sodipodi.sourceforge.net/DTD/sodipodi-0.dtd"
   xmlns:inkscape="http://www.inkscape.org/namespaces/inkscape"
   width="656.34497"
   height="370.73752"
   id="svg4434"
   version="1.1"
   inkscape:version="0.48.4 r9939"
   sodipodi:docname="logo.png">
  <defs
     id="defs4436" />
  <sodipodi:namedview
     id="base"
     pagecolor="#ffffff"
     bordercolor="#666666"
     borderopacity="1.0"
     inkscape:pageopacity="0.0"
     inkscape:pageshadow="2"
     inkscape:zoom="0.35"
     inkscape:cx="323.1725"
     inkscape:cy="-163.20267"
     inkscape:document-units="px"
     inkscape:current-layer="layer1"
     showgrid="false"
     fit-margin-top="25"
     fit-margin-left="25"
     fit-margin-right="25"
     fit-margin-bottom="25"
     inkscape:window-width="1366"
     inkscape:window-height="706"
     inkscape:window-x="-8"
     inkscape:window-y="-8"
     inkscape:window-maximized="1" />
  <metadata
     id="metadata4439">
    <rdf:RDF>
      <cc:Work
         rdf:about="">
        <dc:format>image/svg+xml</dc:format>
        <dc:type
           rdf:resource="http://purl.org/dc/dcmitype/StillImage" />
        <dc:title></dc:title>
      </cc:Work>
    </rdf:RDF>
  </metadata>
  <g
     inkscape:label="Layer 1"
     inkscape:groupmode="layer"
     id="layer1"
     transform="translate(-51.8275,1.577996)">
    <path
       inkscape:connector-curvature="0"
       d="m 114.46375,151.94451 531.07375,0 0,63.69125 -531.07375,0 0,-63.69125 z m 418.2325,148.39375 c -42.00875,20.24375 -96.2375,31.39375 -152.695,31.39375 -56.4575,0 -110.68625,-11.15 -152.695,-31.39375 -38.62125,-18.60875 -65.90625,-44.52 -79.1775,-74.18875 l 86.265,0 c 28.79875,25.925 83.215,43.41125 145.6075,43.41125 62.3925,0 116.80625,-17.48625 145.60875,-43.41125 l 86.26375,0 c -13.27125,29.66875 -40.55875,55.58 -79.1775,74.18875 M 254.81375,141.42951 c 3.825,-2.51375 7.98375,-4.93125 12.465,-7.22875 29.9,-15.3175 69.935,-23.755 112.7225,-23.755 42.78875,0 82.82,8.4375 112.7225,23.755 4.485,2.2975 8.64,4.715 12.46625,7.22875 l -250.37625,0 z m 250.37625,84.72 c -3.82625,2.515 -7.98125,4.93375 -12.46625,7.23125 -29.9025,15.3175 -69.93375,23.755 -112.7225,23.755 -42.7875,0 -82.8225,-8.4375 -112.7225,-23.755 -4.48125,-2.2975 -8.64,-4.71625 -12.465,-7.23125 l 250.37625,0 z M 227.30625,67.242004 c 42.00625,-20.245 96.235,-31.39375 152.695,-31.39375 56.46,0 110.68875,11.14875 152.695,31.3925 38.61875,18.608755 65.90625,44.522506 79.1775,74.188756 l -86.26375,0 c -28.8,-25.92375 -83.21625,-43.408751 -145.60875,-43.408751 -62.395,0 -116.80875,17.485001 -145.61,43.408751 l -86.2625,0 C 161.4,111.76326 188.685,85.849509 227.30625,67.242004 m 428.745,89.426256 0,-15.23875 -30.66875,0 C 611.825,106.96201 581.6275,77.025759 538.09,56.045754 c -43.6575,-21.03875 -99.8,-32.62375 -158.08875,-32.62375 -58.28875,0 -114.43375,11.585 -158.09,32.62375 C 178.375,77.025759 148.175,106.96326 134.62,141.42951 l -30.67125,0 0,15.23875 c -14.98,0 -27.12125,12.1425 -27.12125,27.1225 0,14.9775 12.14125,27.1225 27.12125,27.1225 l 0,15.23625 30.67125,0 c 13.555,34.4675 43.755,64.40625 87.29125,85.385 43.65625,21.0375 99.80125,32.625 158.09,32.625 58.28875,0 114.43125,-11.5875 158.08875,-32.625 43.5375,-20.97875 73.735,-50.9175 87.2925,-85.385 l 30.66875,0 0,-15.23625 c 14.98,0 27.12125,-12.145 27.12125,-27.1225 0,-14.98 -12.14125,-27.1225 -27.12125,-27.1225"
       style="fill:#004b2d;fill-opacity:1;fill-rule:evenodd;stroke:none"
       id="path20" />
    <g
       id="g22"
       transform="matrix(1.25,0,0,-1.25,122.98487,158.12151)">
      <path
         inkscape:connector-curvature="0"
         d="m 0,0 15.465,0 20.183,-22.473 0,22.473 15.614,0 0,-40.62 -15.614,0 -20.074,22.304 0,-22.304 L 0,-40.62 0,0 z"
         style="fill:#004b2d;fill-opacity:1;fill-rule:nonzero;stroke:none"
         id="path24" />
    </g>
    <g
       id="g26"
       transform="matrix(1.25,0,0,-1.25,200.773,158.12151)">
      <path
         inkscape:connector-curvature="0"
         d="m 0,0 44.387,0 0,-8.674 -27.789,0 0,-6.455 25.777,0 0,-8.285 -25.777,0 0,-8.006 28.593,0 0,-9.2 L 0,-40.62 0,0 z"
         style="fill:#004b2d;fill-opacity:1;fill-rule:nonzero;stroke:none"
         id="path28" />
    </g>
    <g
       id="g30"
       transform="matrix(1.25,0,0,-1.25,268.4145,158.12151)">
      <path
         inkscape:connector-curvature="0"
         d="m 0,0 16.563,0 0,-30.617 25.849,0 0,-10.003 L 0,-40.62 0,0 z"
         style="fill:#004b2d;fill-opacity:1;fill-rule:nonzero;stroke:none"
         id="path32" />
    </g>
    <g
       id="g34"
       transform="matrix(1.25,0,0,-1.25,327.23538,192.09863)">
      <path
         inkscape:connector-curvature="0"
         d="m 0,0 15.758,0.748 c 0.34,-1.939 1.035,-3.418 2.084,-4.434 1.705,-1.644 4.142,-2.464 7.312,-2.464 2.364,0 4.186,0.419 5.465,1.259 1.281,0.84 1.92,1.816 1.92,2.924 0,1.053 -0.609,1.994 -1.828,2.826 -1.219,0.83 -4.045,1.617 -8.482,2.355 C 14.965,4.451 9.785,6.096 6.689,8.146 3.568,10.196 2.01,12.81 2.01,15.987 c 0,2.087 0.797,4.059 2.394,5.915 1.596,1.858 3.998,3.317 7.203,4.378 3.206,1.063 7.598,1.593 13.18,1.593 6.85,0 12.072,-0.965 15.668,-2.894 3.596,-1.931 5.734,-5.002 6.418,-9.213 L 31.26,15.072 c -0.414,1.83 -1.285,3.16 -2.615,3.991 -1.329,0.832 -3.163,1.247 -5.502,1.247 -1.926,0 -3.375,-0.31 -4.352,-0.929 -0.975,-0.619 -1.461,-1.371 -1.461,-2.258 0,-0.646 0.4,-1.228 1.205,-1.744 0.779,-0.537 2.633,-1.037 5.559,-1.498 7.238,-1.182 12.424,-2.378 15.556,-3.588 3.133,-1.21 5.413,-2.711 6.838,-4.502 1.426,-1.792 2.139,-3.797 2.139,-6.012 0,-2.605 -0.951,-5.007 -2.852,-7.205 -1.902,-2.198 -4.558,-3.865 -7.97,-5.001 -3.412,-1.136 -7.715,-1.704 -12.907,-1.704 -9.117,0 -15.431,1.33 -18.941,3.99 C 2.449,-7.481 0.461,-4.101 0,0"
         style="fill:#004b2d;fill-opacity:1;fill-rule:nonzero;stroke:none"
         id="path36" />
    </g>
    <g
       id="g38"
       transform="matrix(1.25,0,0,-1.25,416.53713,183.61351)">
      <path
         inkscape:connector-curvature="0"
         d="m 0,0 c 0,-4.101 1.006,-7.046 3.018,-8.839 2.011,-1.791 4.746,-2.687 8.209,-2.687 3.558,0 6.312,0.877 8.261,2.632 1.951,1.754 2.926,4.905 2.926,9.449 0,3.823 -1.019,6.616 -3.053,8.381 -2.035,1.764 -4.797,2.646 -8.281,2.646 -3.34,0 -6.021,-0.895 -8.045,-2.688 C 1.012,7.103 0,4.138 0,0 m -16.563,0.056 c 0,6.631 2.438,11.794 7.313,15.488 4.875,3.694 11.664,5.541 20.367,5.541 8.92,0 15.793,-1.814 20.621,-5.443 4.826,-3.631 7.239,-8.715 7.239,-15.254 0,-4.747 -1.053,-8.641 -3.163,-11.678 -2.107,-3.039 -5.156,-5.404 -9.14,-7.094 -3.985,-1.69 -8.953,-2.535 -14.899,-2.535 -6.045,0 -11.05,0.73 -15.009,2.189 -3.961,1.459 -7.172,3.768 -9.635,6.926 -2.463,3.159 -3.694,7.112 -3.694,11.86"
         style="fill:#004b2d;fill-opacity:1;fill-rule:nonzero;stroke:none"
         id="path40" />
    </g>
    <g
       id="g42"
       transform="matrix(1.25,0,0,-1.25,476.54937,158.12151)">
      <path
         inkscape:connector-curvature="0"
         d="m 0,0 15.465,0 20.181,-22.473 0,22.473 15.614,0 0,-40.62 -15.614,0 -20.072,22.304 0,-22.304 L 0,-40.62 0,0 z"
         style="fill:#004b2d;fill-opacity:1;fill-rule:nonzero;stroke:none"
         id="path44" />
    </g>
    <g
       id="g46"
       transform="matrix(1.25,0,0,-1.25,550.72412,157.25726)">
      <path
         inkscape:connector-curvature="0"
         d="m 0,0 15.904,0 0,-9.281 c 0,-3.418 -0.937,-6.119 -2.814,-8.104 -1.879,-1.986 -5.082,-3.728 -9.615,-5.223 L 0,-17.677 c 2.828,0.998 4.771,1.99 5.832,2.979 1.061,0.987 1.65,2.157 1.773,3.505 L 0,-11.193 0,0 z"
         style="fill:#004b2d;fill-opacity:1;fill-rule:nonzero;stroke:none"
         id="path48" />
    </g>
    <g
       id="g50"
       transform="matrix(1.25,0,0,-1.25,576.77638,192.09863)">
      <path
         inkscape:connector-curvature="0"
         d="m 0,0 15.758,0.748 c 0.342,-1.939 1.035,-3.418 2.084,-4.434 1.705,-1.644 4.142,-2.464 7.312,-2.464 2.364,0 4.186,0.419 5.467,1.259 1.279,0.84 1.92,1.816 1.92,2.924 0,1.053 -0.611,1.994 -1.828,2.826 C 29.492,1.689 26.666,2.476 22.23,3.214 14.967,4.451 9.787,6.096 6.689,8.146 3.57,10.196 2.01,12.81 2.01,15.987 c 0,2.087 0.797,4.059 2.396,5.915 1.596,1.858 3.996,3.317 7.203,4.378 3.204,1.063 7.598,1.593 13.18,1.593 6.848,0 12.07,-0.965 15.666,-2.894 3.596,-1.931 5.736,-5.002 6.418,-9.213 L 31.26,15.072 c -0.414,1.83 -1.285,3.16 -2.614,3.991 -1.33,0.832 -3.164,1.247 -5.501,1.247 -1.928,0 -3.377,-0.31 -4.352,-0.929 -0.977,-0.619 -1.463,-1.371 -1.463,-2.258 0,-0.646 0.4,-1.228 1.207,-1.744 0.779,-0.537 2.631,-1.037 5.557,-1.498 7.24,-1.182 12.426,-2.378 15.556,-3.588 3.133,-1.21 5.413,-2.711 6.838,-4.502 1.426,-1.792 2.141,-3.797 2.141,-6.012 0,-2.605 -0.953,-5.007 -2.854,-7.205 -1.902,-2.198 -4.558,-3.865 -7.97,-5.001 -3.412,-1.136 -7.715,-1.704 -12.907,-1.704 -9.117,0 -15.429,1.33 -18.939,3.99 C 2.449,-7.481 0.461,-4.101 0,0"
         style="fill:#004b2d;fill-opacity:1;fill-rule:nonzero;stroke:none"
         id="path52" />
    </g>
    <g
       id="g54"
       transform="matrix(1.25,0,0,-1.25,240.37262,260.59476)">
      <path
         inkscape:connector-curvature="0"
         d="M 0,0 C 0.84,0.083 1.492,0.225 1.951,0.425 2.408,0.625 2.738,0.908 2.934,1.274 3.209,1.785 3.217,2.307 2.961,2.837 2.703,3.367 2.229,3.818 1.537,4.189 1.033,4.459 0.576,4.561 0.16,4.493 -0.256,4.426 -0.568,4.197 -0.777,3.809 -0.947,3.49 -0.977,3.047 -0.865,2.478 -0.754,1.908 -0.465,1.082 0,0 m -2.301,-15.48 -3.963,9.92 c -1.031,-0.262 -1.861,-0.59 -2.478,-0.987 -0.623,-0.396 -1.102,-0.905 -1.434,-1.527 -0.635,-1.182 -0.685,-2.461 -0.152,-3.838 0.533,-1.378 1.5,-2.442 2.9,-3.193 0.752,-0.405 1.52,-0.636 2.305,-0.697 0.783,-0.059 1.725,0.048 2.822,0.322 m 1.881,-4.401 c -1.893,-0.38 -3.728,-0.42 -5.504,-0.117 -1.775,0.302 -3.629,0.971 -5.56,2.008 -3.508,1.884 -5.965,4.047 -7.37,6.488 -1.406,2.441 -1.531,4.734 -0.38,6.879 0.718,1.34 1.875,2.344 3.468,3.012 1.592,0.668 4.127,1.142 7.604,1.426 -0.617,1.824 -0.973,3.355 -1.065,4.597 -0.091,1.243 0.079,2.266 0.51,3.07 0.856,1.597 2.373,2.485 4.551,2.666 C -1.99,10.33 0.365,9.739 2.902,8.378 5.525,6.969 7.354,5.344 8.389,3.502 9.422,1.659 9.504,-0.072 8.635,-1.692 8.156,-2.582 7.385,-3.285 6.318,-3.804 5.25,-4.322 3.811,-4.698 1.994,-4.932 l 5.459,-12.914 c 0.693,-1.643 1.76,-3.675 3.195,-6.093 1.436,-2.42 3.122,-5.012 5.055,-7.776 l -6.75,3.293 c -0.182,0.083 -0.375,0.176 -0.578,0.276 -0.203,0.101 -0.488,0.25 -0.855,0.447 -2.079,1.117 -3.745,2.289 -4.993,3.516 -1.25,1.228 -2.232,2.662 -2.947,4.302"
         style="fill:#004b2d;fill-opacity:1;fill-rule:nonzero;stroke:none"
         id="path56" />
    </g>
    <g
       id="g58"
       transform="matrix(1.25,0,0,-1.25,299.67188,304.03951)">
      <path
         inkscape:connector-curvature="0"
         d="m 0,0 c 0.529,-0.238 1.049,-0.443 1.551,-0.611 0.504,-0.168 1.015,-0.309 1.541,-0.418 2.685,-0.563 5.033,-0.141 7.047,1.269 2.013,1.406 3.326,3.573 3.939,6.496 0.627,3.006 0.32,5.539 -0.922,7.601 -1.244,2.061 -3.25,3.383 -6.017,3.962 -0.475,0.099 -0.985,0.184 -1.526,0.256 -0.539,0.07 -1.105,0.125 -1.693,0.164 L 0,0 z m -12.275,-2.156 c 0.837,0.402 1.472,0.902 1.904,1.498 0.432,0.594 0.801,1.623 1.107,3.084 l 3.823,18.252 c 0.306,1.463 0.377,2.546 0.218,3.25 -0.16,0.705 -0.543,1.41 -1.148,2.116 L 7.264,23.189 c 6.209,-1.3 10.777,-3.559 13.711,-6.781 2.931,-3.22 3.933,-7.051 3.005,-11.49 C 23.5,2.631 22.568,0.648 21.186,-1.023 19.799,-2.697 18.004,-4.025 15.799,-5.004 14.178,-5.725 12.336,-6.109 10.275,-6.158 8.213,-6.207 5.676,-5.916 2.662,-5.283 l -14.937,3.127 z"
         style="fill:#004b2d;fill-opacity:1;fill-rule:nonzero;stroke:none"
         id="path60" />
    </g>
    <g
       id="g62"
       transform="matrix(1.25,0,0,-1.25,338.56837,316.63476)">
      <path
         inkscape:connector-curvature="0"
         d="m 0,0 c 0.773,0.516 1.332,1.096 1.682,1.744 0.345,0.649 0.57,1.717 0.673,3.207 l 1.293,18.604 c 0.108,1.546 0.032,2.646 -0.222,3.3 -0.256,0.657 -0.733,1.286 -1.43,1.889 l 20.358,-1.415 -0.416,-5.98 c -0.743,0.661 -1.463,1.141 -2.165,1.439 -0.701,0.299 -1.593,0.485 -2.677,0.562 l -3.557,0.246 -0.498,-7.16 6.66,-0.463 -0.383,-5.526 c -0.367,0.498 -0.861,0.893 -1.476,1.184 -0.619,0.293 -1.336,0.469 -2.154,0.525 l -2.93,0.203 -0.6,-8.65 c 0.807,-0.193 1.514,-0.34 2.119,-0.438 0.606,-0.097 1.176,-0.164 1.711,-0.203 1.903,-0.13 3.545,-0.08 4.93,0.157 1.383,0.236 2.693,0.687 3.93,1.349 L 22.559,-1.566 0,0 z"
         style="fill:#004b2d;fill-opacity:1;fill-rule:nonzero;stroke:none"
         id="path64" />
    </g>
    <g
       id="g66"
       transform="matrix(1.25,0,0,-1.25,378.44387,309.93314)">
      <path
         inkscape:connector-curvature="0"
         d="m 0,0 c 2.266,-1.035 4.285,-1.768 6.061,-2.197 1.773,-0.432 3.49,-0.616 5.144,-0.553 1.572,0.059 2.836,0.4 3.791,1.025 0.957,0.625 1.418,1.407 1.381,2.346 -0.055,1.465 -2.043,2.885 -5.965,4.258 -1.17,0.412 -2.078,0.738 -2.723,0.976 -2.431,0.932 -4.3,2.086 -5.607,3.461 -1.309,1.376 -1.994,2.92 -2.061,4.634 -0.095,2.515 0.991,4.581 3.258,6.196 2.266,1.616 5.338,2.497 9.217,2.643 1.438,0.055 2.867,-0.002 4.289,-0.169 1.42,-0.167 2.918,-0.45 4.488,-0.847 l 0.186,-4.85 c -1.631,0.616 -3.033,1.06 -4.207,1.335 -1.174,0.273 -2.205,0.394 -3.092,0.36 C 12.822,18.567 11.734,18.256 10.895,17.684 10.053,17.112 9.648,16.427 9.68,15.625 9.727,14.408 11.777,13.04 15.838,11.52 17.436,10.916 18.691,10.432 19.611,10.064 21.635,9.229 23.15,8.193 24.16,6.959 25.172,5.723 25.709,4.229 25.775,2.475 25.879,-0.25 24.705,-2.5 22.252,-4.281 19.799,-6.064 16.516,-7.033 12.404,-7.189 10.781,-7.25 9.121,-7.186 7.424,-6.994 5.725,-6.803 3.92,-6.486 2.012,-6.047 L 0,0 z"
         style="fill:#004b2d;fill-opacity:1;fill-rule:nonzero;stroke:none"
         id="path68" />
    </g>
    <g
       id="g70"
       transform="matrix(1.25,0,0,-1.25,435.4775,308.15089)">
      <path
         inkscape:connector-curvature="0"
         d="M 0,0 C 0.197,-1.48 0.494,-2.533 0.893,-3.156 1.287,-3.779 1.879,-4.324 2.668,-4.791 L -10.99,-6.617 c 0.654,0.658 1.088,1.34 1.297,2.045 0.209,0.705 0.213,1.799 0.017,3.279 l -2.47,18.482 c -0.208,1.536 -0.502,2.598 -0.885,3.19 -0.381,0.59 -0.975,1.11 -1.778,1.56 L -1.15,23.767 C -1.807,23.105 -2.238,22.431 -2.449,21.74 -2.66,21.05 -2.67,19.963 -2.471,18.484 L 0,0 z"
         style="fill:#004b2d;fill-opacity:1;fill-rule:nonzero;stroke:none"
         id="path72" />
    </g>
    <g
       id="g74"
       transform="matrix(1.25,0,0,-1.25,473.55862,293.80513)">
      <path
         inkscape:connector-curvature="0"
         d="M 0,0 C -0.387,1.5 -0.809,2.523 -1.26,3.07 -1.711,3.617 -2.361,4.061 -3.211,4.398 L 7.287,7.112 10.881,-6.785 C 9.178,-7.682 7.533,-8.449 5.953,-9.086 c -1.58,-0.639 -3.123,-1.15 -4.629,-1.541 -5.898,-1.525 -10.998,-1.402 -15.303,0.371 -4.304,1.774 -7.019,4.836 -8.142,9.186 -1.121,4.338 -0.24,8.311 2.646,11.922 2.885,3.61 7.262,6.173 13.127,7.689 1.213,0.314 2.418,0.559 3.608,0.73 1.193,0.172 2.398,0.274 3.617,0.303 l 2.072,-5.506 c -1.838,0.282 -3.431,0.416 -4.785,0.403 -1.353,-0.016 -2.637,-0.179 -3.852,-0.494 -2.98,-0.77 -5.093,-2.212 -6.333,-4.327 -1.243,-2.113 -1.477,-4.67 -0.702,-7.669 0.83,-3.212 2.342,-5.565 4.534,-7.055 2.191,-1.49 4.697,-1.871 7.515,-1.141 0.389,0.1 0.754,0.209 1.096,0.326 0.342,0.116 0.674,0.246 1.002,0.387 L 0,0 z"
         style="fill:#004b2d;fill-opacity:1;fill-rule:nonzero;stroke:none"
         id="path76" />
    </g>
    <g
       id="g78"
       transform="matrix(1.25,0,0,-1.25,503.478,297.67726)">
      <path
         inkscape:connector-curvature="0"
         d="M 0,0 C 0.438,1.102 0.615,2.139 0.529,3.109 0.445,4.08 -0.094,5.555 -1.086,7.531 l -6.943,13.83 c -0.682,1.36 -1.401,2.315 -2.155,2.866 -0.754,0.548 -1.773,1.003 -3.06,1.364 l 9.601,4.82 22.043,-8.662 -5.099,10.159 c -0.627,1.248 -1.319,2.196 -2.076,2.846 -0.756,0.649 -1.735,1.199 -2.934,1.648 l 8.906,4.473 c -0.203,-1.201 -0.238,-2.299 -0.105,-3.291 0.135,-0.992 0.512,-2.107 1.133,-3.343 l 0.529,-1.057 9.857,-19.631 c -4.562,-1.765 -9.439,-1.675 -14.627,0.269 l -0.418,0.16 -14.511,5.412 5.49,-10.938 C 5.203,7.146 5.859,6.227 6.52,5.699 7.178,5.17 8.033,4.791 9.084,4.562 L 0,0 z"
         style="fill:#004b2d;fill-opacity:1;fill-rule:nonzero;stroke:none"
         id="path80" />
    </g>
    <g
       id="g82"
       transform="matrix(1.25,0,0,-1.25,215.77787,120.22114)">
      <path
         inkscape:connector-curvature="0"
         d="m 0,0 c 1.111,-1.5 2.252,-2.424 3.42,-2.771 1.17,-0.348 2.314,-0.106 3.439,0.726 1.2,0.889 1.817,1.942 1.85,3.164 C 8.744,2.34 8.195,3.712 7.068,5.234 l -8.246,11.137 c -0.73,0.988 -1.416,1.721 -2.052,2.195 -0.635,0.477 -1.411,0.763 -2.325,0.86 l 9.186,6.802 C 3.48,25.429 3.492,24.697 3.668,24.035 3.84,23.371 4.387,22.417 5.309,21.172 L 16.406,6.185 C 17.295,4.984 18.041,4.19 18.646,3.805 19.25,3.417 19.961,3.172 20.775,3.07 l -7.687,-5.689 -1.813,2.45 C 11.123,-1.916 10.691,-3.436 9.98,-4.729 9.268,-6.021 8.229,-7.174 6.861,-8.186 5.695,-9.05 4.521,-9.626 3.34,-9.914 c -1.178,-0.289 -2.373,-0.305 -3.58,-0.045 -1.061,0.247 -2.035,0.721 -2.924,1.422 -0.889,0.701 -1.947,1.88 -3.172,3.537 L -14.73,6.336 c -0.922,1.244 -1.672,2.048 -2.25,2.412 -0.579,0.362 -1.278,0.584 -2.096,0.668 l 9.154,6.775 c -0.152,-0.817 -0.133,-1.564 0.057,-2.24 0.191,-0.676 0.73,-1.614 1.621,-2.814 L 0,0 z"
         style="fill:#004b2d;fill-opacity:1;fill-rule:nonzero;stroke:none"
         id="path84" />
    </g>
    <g
       id="g86"
       transform="matrix(1.25,0,0,-1.25,248.77587,73.795379)">
      <path
         inkscape:connector-curvature="0"
         d="m 0,0 c 2.605,1.151 4.949,1.422 7.031,0.815 2.082,-0.607 3.602,-1.993 4.557,-4.156 1.072,-2.429 1.105,-4.696 0.101,-6.803 -1.005,-2.107 -2.918,-3.782 -5.74,-5.028 -0.316,-0.14 -0.838,-0.341 -1.57,-0.602 l -0.094,-0.042 c 0.936,1.199 1.479,2.424 1.629,3.678 0.149,1.253 -0.098,2.607 -0.738,4.062 -0.633,1.43 -1.496,2.404 -2.596,2.924 -1.098,0.52 -2.283,0.507 -3.555,-0.038 L 6.844,-22.896 C 7.445,-24.262 8,-25.2 8.504,-25.71 c 0.506,-0.511 1.144,-0.905 1.918,-1.184 l -10.42,-4.598 c 0.328,0.763 0.471,1.503 0.428,2.217 -0.043,0.714 -0.367,1.754 -0.969,3.121 L -8.07,-9.095 c -0.604,1.366 -1.153,2.3 -1.645,2.8 -0.492,0.5 -1.133,0.887 -1.918,1.16 L 0,0 z"
         style="fill:#004b2d;fill-opacity:1;fill-rule:nonzero;stroke:none"
         id="path88" />
    </g>
    <g
       id="g90"
       transform="matrix(1.25,0,0,-1.25,295.88525,72.932379)">
      <path
         inkscape:connector-curvature="0"
         d="m 0,0 -1.621,6.03 c -0.371,1.389 -0.77,2.377 -1.192,2.965 -0.423,0.588 -1.011,1.082 -1.763,1.483 l 11.08,2.973 C 6.055,12.729 5.791,12.007 5.721,11.286 5.65,10.565 5.801,9.511 6.174,8.122 L 11.01,-9.889 c 0.373,-1.388 0.771,-2.383 1.197,-2.985 0.428,-0.602 1.016,-1.102 1.768,-1.502 L 2.896,-17.351 c 0.438,0.719 0.694,1.446 0.768,2.183 0.074,0.735 -0.074,1.798 -0.447,3.187 l -2.051,7.633 -9.035,-2.426 2.049,-7.633 c 0.388,-1.442 0.791,-2.454 1.213,-3.035 0.419,-0.582 0.992,-1.069 1.712,-1.462 l -10.996,-2.954 c 0.44,0.706 0.694,1.414 0.76,2.127 0.067,0.712 -0.094,1.79 -0.48,3.232 l -4.838,18.01 c -0.401,1.496 -0.805,2.519 -1.209,3.069 -0.406,0.549 -0.975,1.013 -1.705,1.39 l 11,2.953 c -0.444,-0.706 -0.698,-1.408 -0.768,-2.108 -0.07,-0.699 0.09,-1.769 0.477,-3.211 L -9.035,-2.427 0,0 z"
         style="fill:#004b2d;fill-opacity:1;fill-rule:nonzero;stroke:none"
         id="path92" />
    </g>
    <g
       id="g94"
       transform="matrix(1.25,0,0,-1.25,327.64063,69.383759)">
      <path
         inkscape:connector-curvature="0"
         d="m 0,0 c 0.414,-3.545 1.471,-6.307 3.17,-8.287 1.701,-1.981 3.732,-2.834 6.094,-2.558 2.295,0.268 4.009,1.321 5.146,3.158 1.135,1.838 1.529,4.241 1.184,7.208 C 15.182,3.064 14.121,5.819 12.416,7.786 10.711,9.752 8.67,10.597 6.295,10.319 4.029,10.055 2.326,9 1.191,7.155 0.057,5.311 -0.34,2.925 0,0 m 9.504,-15.057 c -4.725,-0.55 -8.762,0.406 -12.113,2.869 -3.35,2.463 -5.28,5.885 -5.793,10.268 -0.233,2.005 -0.018,4.011 0.646,6.017 0.666,2.005 1.723,3.831 3.172,5.475 1.332,1.479 2.906,2.674 4.719,3.589 1.816,0.915 3.775,1.495 5.875,1.739 4.765,0.557 8.82,-0.382 12.16,-2.82 3.34,-2.436 5.268,-5.859 5.783,-10.269 0.233,-2.005 0.014,-4.026 -0.662,-6.059 -0.674,-2.035 -1.727,-3.854 -3.154,-5.454 -1.317,-1.49 -2.881,-2.693 -4.698,-3.607 -1.814,-0.915 -3.793,-1.498 -5.935,-1.748"
         style="fill:#004b2d;fill-opacity:1;fill-rule:nonzero;stroke:none"
         id="path96" />
    </g>
    <g
       id="g98"
       transform="matrix(1.25,0,0,-1.25,365.13325,85.145509)">
      <path
         inkscape:connector-curvature="0"
         d="M 0,0 C 0.602,0.572 1.025,1.194 1.27,1.867 1.512,2.539 1.627,3.623 1.613,5.116 L 1.455,23.764 c -0.014,1.549 -0.148,2.64 -0.4,3.274 -0.256,0.634 -0.692,1.226 -1.303,1.773 l 11.389,0.097 C 10.535,28.336 10.113,27.721 9.869,27.063 9.627,26.402 9.51,25.326 9.523,23.833 L 9.686,4.979 c 0.802,-0.257 1.585,-0.444 2.347,-0.562 0.762,-0.118 1.524,-0.173 2.283,-0.167 1.038,0.01 2.022,0.173 2.954,0.492 0.929,0.32 1.882,0.822 2.859,1.508 L 18.645,0.159 0,0 z"
         style="fill:#004b2d;fill-opacity:1;fill-rule:nonzero;stroke:none"
         id="path100" />
    </g>
    <g
       id="g102"
       transform="matrix(1.25,0,0,-1.25,396.05862,76.158639)">
      <path
         inkscape:connector-curvature="0"
         d="m 0,0 c 1.742,-1.264 3.316,-2.203 4.725,-2.816 1.406,-0.614 2.793,-0.975 4.158,-1.085 1.295,-0.105 2.369,0.102 3.222,0.623 0.854,0.52 1.319,1.25 1.395,2.187 C 13.617,0.37 12.146,1.987 9.086,3.762 8.17,4.293 7.463,4.711 6.959,5.016 5.07,6.195 3.668,7.536 2.748,9.039 c -0.918,1.503 -1.309,3.11 -1.17,4.819 0.201,2.508 1.322,4.447 3.361,5.816 2.04,1.367 4.659,1.923 7.856,1.664 1.185,-0.096 2.351,-0.301 3.498,-0.615 1.148,-0.316 2.344,-0.752 3.59,-1.311 L 19.49,14.574 c -1.269,0.781 -2.369,1.371 -3.301,1.766 -0.933,0.393 -1.765,0.621 -2.494,0.68 -1.103,0.089 -2.031,-0.107 -2.785,-0.586 -0.754,-0.481 -1.162,-1.121 -1.226,-1.92 -0.1,-1.213 1.431,-2.787 4.591,-4.721 1.243,-0.767 2.219,-1.379 2.932,-1.839 1.566,-1.043 2.695,-2.23 3.385,-3.562 0.691,-1.333 0.965,-2.874 0.824,-4.624 C 21.195,-2.948 19.98,-5.063 17.771,-6.576 15.561,-8.09 12.76,-8.71 9.369,-8.437 8.031,-8.328 6.678,-8.09 5.305,-7.723 3.934,-7.355 2.488,-6.854 0.975,-6.217 L 0,0 z"
         style="fill:#004b2d;fill-opacity:1;fill-rule:nonzero;stroke:none"
         id="path104" />
    </g>
    <g
       id="g106"
       transform="matrix(1.25,0,0,-1.25,446.918,84.996509)">
      <path
         inkscape:connector-curvature="0"
         d="m 0,0 c -0.268,-1.469 -0.336,-2.557 -0.203,-3.262 0.131,-0.706 0.437,-1.391 0.92,-2.056 l -11.203,2.042 c 0.687,0.451 1.216,0.984 1.59,1.598 0.371,0.614 0.691,1.656 0.958,3.125 l 3.35,18.387 c -0.172,0.06 -0.355,0.113 -0.551,0.163 -0.193,0.05 -0.494,0.111 -0.904,0.187 -0.924,0.168 -1.871,0.211 -2.844,0.127 -0.97,-0.082 -2.021,-0.295 -3.152,-0.637 l 2.842,6.102 20.754,-3.782 -2.618,-6.143 C 8.588,16.463 8.098,16.956 7.471,17.331 6.844,17.705 6.047,17.98 5.08,18.156 4.916,18.187 4.574,18.234 4.053,18.302 3.764,18.34 3.529,18.368 3.352,18.387 L 0,0 z"
         style="fill:#004b2d;fill-opacity:1;fill-rule:nonzero;stroke:none"
         id="path108" />
    </g>
    <g
       id="g110"
       transform="matrix(1.25,0,0,-1.25,461.21238,94.549759)">
      <path
         inkscape:connector-curvature="0"
         d="m 0,0 c 0.746,0.364 1.338,0.83 1.771,1.4 0.434,0.57 0.868,1.569 1.303,2.996 l 5.442,17.838 c 0.449,1.481 0.65,2.563 0.597,3.244 -0.052,0.68 -0.289,1.374 -0.709,2.081 l 16.131,-4.918 -1.75,-5.735 c -0.443,0.772 -0.914,1.364 -1.41,1.776 -0.496,0.411 -1.176,0.748 -2.033,1.009 l -2.819,0.86 -2.093,-6.865 5.277,-1.61 -1.613,-5.298 c -0.182,0.546 -0.487,1.015 -0.916,1.408 -0.432,0.39 -0.971,0.685 -1.617,0.882 L 13.238,9.777 10.711,1.482 c 0.605,-0.329 1.143,-0.594 1.609,-0.794 0.467,-0.2 0.912,-0.365 1.336,-0.494 1.508,-0.46 2.848,-0.695 4.024,-0.707 1.175,-0.01 2.341,0.198 3.5,0.625 L 17.877,-5.451 0,0 z"
         style="fill:#004b2d;fill-opacity:1;fill-rule:nonzero;stroke:none"
         id="path112" />
    </g>
    <g
       id="g114"
       transform="matrix(1.25,0,0,-1.25,510.31887,92.813879)">
      <path
         inkscape:connector-curvature="0"
         d="M 0,0 C 1.551,-0.313 2.896,-0.21 4.029,0.305 5.164,0.82 6.037,1.715 6.645,2.986 7.217,4.185 7.34,5.286 7.018,6.292 6.691,7.298 5.963,8.071 4.826,8.613 4.664,8.691 4.543,8.744 4.465,8.773 4.389,8.804 4.307,8.824 4.219,8.835 L 0,0 z m -4.807,-13.91 -10.277,4.908 c 0.793,0.249 1.447,0.623 1.961,1.121 0.514,0.497 1.094,1.421 1.736,2.768 l 8.039,16.828 c 0.668,1.396 1.026,2.435 1.077,3.117 0.048,0.682 -0.083,1.402 -0.391,2.164 L 7.463,12.158 C 10.844,10.543 13.092,8.762 14.207,6.811 15.32,4.861 15.324,2.725 14.215,0.404 13.555,-0.98 12.594,-2.004 11.334,-2.668 10.074,-3.33 8.449,-3.66 6.457,-3.66 l 0.854,-10.293 c 0.076,-0.864 0.232,-1.8 0.462,-2.808 0.233,-1.007 0.541,-2.069 0.926,-3.188 l -4.519,1.653 c -0.131,0.048 -0.27,0.103 -0.416,0.165 -0.147,0.063 -0.364,0.162 -0.651,0.299 -1.347,0.644 -2.31,1.525 -2.886,2.644 -0.579,1.118 -0.907,2.768 -0.981,4.95 l -0.223,8.198 -3.128,-6.552 c -0.645,-1.347 -0.995,-2.379 -1.053,-3.094 -0.059,-0.715 0.058,-1.457 0.351,-2.224"
         style="fill:#004b2d;fill-opacity:1;fill-rule:nonzero;stroke:none"
         id="path116" />
    </g>
    <g
       id="g118"
       transform="matrix(1.25,0,0,-1.25,541.857,126.01213)">
      <path
         inkscape:connector-curvature="0"
         d="m 0,0 c -0.869,-1.146 -1.41,-2.071 -1.623,-2.777 -0.217,-0.705 -0.25,-1.478 -0.106,-2.316 l -9.107,6.906 c 0.836,0.095 1.568,0.339 2.195,0.731 0.627,0.393 1.375,1.161 2.245,2.308 l 4.613,6.082 2.387,14.201 c 0.101,0.635 0.164,1.29 0.189,1.965 0.025,0.673 0.014,1.369 -0.035,2.083 l 7.916,-6.005 -2.393,-11.463 4.723,2.382 c 0.848,0.432 1.449,0.774 1.807,1.024 0.353,0.252 0.628,0.505 0.822,0.758 0.215,0.287 0.385,0.663 0.502,1.128 0.119,0.466 0.193,1.085 0.226,1.86 L 20.459,14.241 4.775,6.298 0,0 z"
         style="fill:#004b2d;fill-opacity:1;fill-rule:nonzero;stroke:none"
         id="path120" />
    </g>
  </g>
</svg>
